<mxfile host="app.diagrams.net" modified="2023-06-06T15:23:08.767Z" agent="Mozilla/5.0 (Windows NT 10.0; Win64; x64) AppleWebKit/537.36 (KHTML, like Gecko) Chrome/114.0.0.0 Safari/537.36" etag="hEAAH0VatfspmvglEA41" version="21.3.7" type="github">
  <diagram name="第 1 页" id="VTUkEO_UQAFqfw7q6bWO">
    <mxGraphModel dx="724" dy="-774" grid="1" gridSize="10" guides="1" tooltips="1" connect="1" arrows="1" fold="1" page="1" pageScale="1" pageWidth="827" pageHeight="1169" math="0" shadow="0">
      <root>
        <mxCell id="0" />
        <mxCell id="1" parent="0" />
        <mxCell id="MNF7uUWkkhBH7P5a3Kn4-1" value="" style="rounded=0;whiteSpace=wrap;html=1;fillColor=#f5f5f5;fontColor=#333333;strokeColor=#666666;" vertex="1" parent="1">
          <mxGeometry x="100" y="1675" width="510" height="79" as="geometry" />
        </mxCell>
        <mxCell id="MNF7uUWkkhBH7P5a3Kn4-2" value="" style="rounded=0;whiteSpace=wrap;html=1;fillColor=#f5f5f5;fontColor=#333333;strokeColor=#666666;" vertex="1" parent="1">
          <mxGeometry x="100" y="1204" width="510" height="330" as="geometry" />
        </mxCell>
        <mxCell id="MNF7uUWkkhBH7P5a3Kn4-3" value="" style="rounded=0;whiteSpace=wrap;html=1;fillColor=#f5f5f5;strokeColor=#666666;fontColor=#333333;" vertex="1" parent="1">
          <mxGeometry x="100" y="1534" width="510" height="141" as="geometry" />
        </mxCell>
        <mxCell id="MNF7uUWkkhBH7P5a3Kn4-4" value="NAND Flash" style="rounded=0;whiteSpace=wrap;html=1;fillColor=#f9f7ed;strokeColor=#36393d;" vertex="1" parent="1">
          <mxGeometry x="110" y="1724" width="490" height="20" as="geometry" />
        </mxCell>
        <mxCell id="MNF7uUWkkhBH7P5a3Kn4-5" value="FTL(flash translation layer)" style="rounded=0;whiteSpace=wrap;html=1;fillColor=#f9f7ed;strokeColor=#36393d;" vertex="1" parent="1">
          <mxGeometry x="110" y="1684" width="490" height="30" as="geometry" />
        </mxCell>
        <mxCell id="MNF7uUWkkhBH7P5a3Kn4-6" value="Linux" style="text;html=1;strokeColor=none;fillColor=none;align=center;verticalAlign=middle;whiteSpace=wrap;rounded=0;fontSize=14;labelBorderColor=none;" vertex="1" parent="1">
          <mxGeometry x="630" y="1594" width="65" height="30" as="geometry" />
        </mxCell>
        <mxCell id="MNF7uUWkkhBH7P5a3Kn4-7" value="进程管理" style="rounded=0;whiteSpace=wrap;html=1;fillColor=#f9f7ed;strokeColor=#36393d;" vertex="1" parent="1">
          <mxGeometry x="110" y="1634" width="80" height="30" as="geometry" />
        </mxCell>
        <mxCell id="MNF7uUWkkhBH7P5a3Kn4-8" value="内存管理" style="rounded=0;whiteSpace=wrap;html=1;fillColor=#f9f7ed;strokeColor=#36393d;" vertex="1" parent="1">
          <mxGeometry x="200" y="1634" width="80" height="30" as="geometry" />
        </mxCell>
        <mxCell id="MNF7uUWkkhBH7P5a3Kn4-9" value="页高速缓存" style="rounded=0;whiteSpace=wrap;html=1;fillColor=#f9f7ed;strokeColor=#36393d;" vertex="1" parent="1">
          <mxGeometry x="290" y="1634" width="91" height="30" as="geometry" />
        </mxCell>
        <mxCell id="MNF7uUWkkhBH7P5a3Kn4-10" value="...." style="text;html=1;strokeColor=none;fillColor=none;align=center;verticalAlign=middle;whiteSpace=wrap;rounded=0;" vertex="1" parent="1">
          <mxGeometry x="510" y="1634" width="60" height="30" as="geometry" />
        </mxCell>
        <mxCell id="MNF7uUWkkhBH7P5a3Kn4-11" value="F2FS文件系统" style="rounded=0;whiteSpace=wrap;html=1;fillColor=#f9f7ed;strokeColor=#36393d;" vertex="1" parent="1">
          <mxGeometry x="110" y="1584" width="490" height="40" as="geometry" />
        </mxCell>
        <mxCell id="MNF7uUWkkhBH7P5a3Kn4-12" value="VFS" style="rounded=0;whiteSpace=wrap;html=1;fillColor=#f9f7ed;strokeColor=#36393d;" vertex="1" parent="1">
          <mxGeometry x="110" y="1544" width="490" height="30" as="geometry" />
        </mxCell>
        <mxCell id="MNF7uUWkkhBH7P5a3Kn4-13" value="块设备抽象" style="text;html=1;align=center;verticalAlign=middle;rounded=0;fontSize=16;fontStyle=1" vertex="1" parent="1">
          <mxGeometry x="20" y="1654" width="70" height="30" as="geometry" />
        </mxCell>
        <mxCell id="MNF7uUWkkhBH7P5a3Kn4-14" value="" style="endArrow=none;html=1;rounded=0;exitX=0;exitY=0;exitDx=0;exitDy=0;strokeWidth=3;entryX=1;entryY=0;entryDx=0;entryDy=0;fillColor=#dae8fc;strokeColor=#6c8ebf;fontColor=#fff2cc;" edge="1" parent="1" target="MNF7uUWkkhBH7P5a3Kn4-3">
          <mxGeometry width="50" height="50" relative="1" as="geometry">
            <mxPoint x="100" y="1534" as="sourcePoint" />
            <mxPoint x="500" y="1534" as="targetPoint" />
          </mxGeometry>
        </mxCell>
        <mxCell id="MNF7uUWkkhBH7P5a3Kn4-15" value="&lt;font style=&quot;font-size: 16px;&quot;&gt;&lt;b&gt;系统调用&lt;/b&gt;&lt;/font&gt;" style="text;html=1;strokeColor=none;fillColor=none;align=center;verticalAlign=middle;whiteSpace=wrap;rounded=0;" vertex="1" parent="1">
          <mxGeometry x="25" y="1514" width="70" height="30" as="geometry" />
        </mxCell>
        <mxCell id="MNF7uUWkkhBH7P5a3Kn4-16" value="dump" style="rounded=0;whiteSpace=wrap;html=1;fillColor=#f5f5f5;fontColor=#333333;strokeColor=#666666;" vertex="1" parent="1">
          <mxGeometry x="150" y="1214" width="40" height="310" as="geometry" />
        </mxCell>
        <mxCell id="MNF7uUWkkhBH7P5a3Kn4-17" value="mkfs" style="rounded=0;whiteSpace=wrap;html=1;fillColor=#f5f5f5;fontColor=#333333;strokeColor=#666666;" vertex="1" parent="1">
          <mxGeometry x="105" y="1214" width="35" height="310" as="geometry" />
        </mxCell>
        <mxCell id="MNF7uUWkkhBH7P5a3Kn4-18" value="" style="rounded=0;whiteSpace=wrap;html=1;fillColor=#fff2cc;strokeColor=#d6b656;" vertex="1" parent="1">
          <mxGeometry x="210" y="1214" width="390" height="310" as="geometry" />
        </mxCell>
        <mxCell id="MNF7uUWkkhBH7P5a3Kn4-19" value="...." style="text;html=1;strokeColor=none;fillColor=none;align=center;verticalAlign=middle;whiteSpace=wrap;rounded=0;" vertex="1" parent="1">
          <mxGeometry x="170" y="1434" width="60" height="30" as="geometry" />
        </mxCell>
        <mxCell id="MNF7uUWkkhBH7P5a3Kn4-20" value="fsck" style="text;html=1;strokeColor=none;fillColor=none;align=center;verticalAlign=middle;whiteSpace=wrap;rounded=0;" vertex="1" parent="1">
          <mxGeometry x="180" y="1194" width="60" height="30" as="geometry" />
        </mxCell>
        <mxCell id="MNF7uUWkkhBH7P5a3Kn4-21" value="F2FS-tools" style="text;html=1;strokeColor=none;fillColor=none;align=center;verticalAlign=middle;whiteSpace=wrap;rounded=0;fontSize=14;labelBackgroundColor=default;" vertex="1" parent="1">
          <mxGeometry x="635" y="1359" width="75" height="30" as="geometry" />
        </mxCell>
        <mxCell id="MNF7uUWkkhBH7P5a3Kn4-22" style="edgeStyle=orthogonalEdgeStyle;rounded=0;orthogonalLoop=1;jettySize=auto;html=1;exitX=0.5;exitY=1;exitDx=0;exitDy=0;entryX=0.5;entryY=0;entryDx=0;entryDy=0;" edge="1" parent="1" source="MNF7uUWkkhBH7P5a3Kn4-23" target="MNF7uUWkkhBH7P5a3Kn4-26">
          <mxGeometry relative="1" as="geometry" />
        </mxCell>
        <mxCell id="MNF7uUWkkhBH7P5a3Kn4-23" value="&lt;font color=&quot;#ff3399&quot;&gt;&lt;b&gt;任务管理&lt;/b&gt;&lt;/font&gt;" style="rounded=0;whiteSpace=wrap;html=1;fillColor=#66FF66;" vertex="1" parent="1">
          <mxGeometry x="290" y="1394" width="238" height="30" as="geometry" />
        </mxCell>
        <mxCell id="MNF7uUWkkhBH7P5a3Kn4-24" style="rounded=0;orthogonalLoop=1;jettySize=auto;html=1;entryX=1;entryY=0.5;entryDx=0;entryDy=0;targetPerimeterSpacing=0;startArrow=classic;startFill=1;exitX=0;exitY=0.5;exitDx=0;exitDy=0;" edge="1" parent="1" source="MNF7uUWkkhBH7P5a3Kn4-28" target="MNF7uUWkkhBH7P5a3Kn4-26">
          <mxGeometry relative="1" as="geometry">
            <mxPoint x="630" y="1614" as="sourcePoint" />
            <Array as="points" />
          </mxGeometry>
        </mxCell>
        <mxCell id="MNF7uUWkkhBH7P5a3Kn4-25" style="edgeStyle=orthogonalEdgeStyle;rounded=0;orthogonalLoop=1;jettySize=auto;html=1;exitX=0;exitY=0.5;exitDx=0;exitDy=0;entryX=1;entryY=0.5;entryDx=0;entryDy=0;" edge="1" parent="1" source="MNF7uUWkkhBH7P5a3Kn4-26" target="MNF7uUWkkhBH7P5a3Kn4-38">
          <mxGeometry relative="1" as="geometry" />
        </mxCell>
        <mxCell id="MNF7uUWkkhBH7P5a3Kn4-26" value="&lt;font color=&quot;#ff3399&quot;&gt;&lt;b&gt;工作线程池&lt;/b&gt;&lt;/font&gt;" style="rounded=0;whiteSpace=wrap;html=1;fillColor=#66FF66;" vertex="1" parent="1">
          <mxGeometry x="367" y="1444" width="66" height="70" as="geometry" />
        </mxCell>
        <mxCell id="MNF7uUWkkhBH7P5a3Kn4-27" value="&lt;font color=&quot;#b266ff&quot;&gt;&lt;b&gt;资源动态调整&lt;/b&gt;&lt;/font&gt;" style="rounded=0;whiteSpace=wrap;html=1;fillColor=#cdeb8b;strokeColor=#36393d;" vertex="1" parent="1">
          <mxGeometry x="550" y="1224" width="40" height="290" as="geometry" />
        </mxCell>
        <mxCell id="MNF7uUWkkhBH7P5a3Kn4-28" value="&lt;font color=&quot;#ff3399&quot;&gt;&lt;b&gt;空闲线程池&lt;/b&gt;&lt;/font&gt;" style="rounded=0;whiteSpace=wrap;html=1;fillColor=#66FF66;" vertex="1" parent="1">
          <mxGeometry x="460" y="1444" width="68" height="70" as="geometry" />
        </mxCell>
        <mxCell id="MNF7uUWkkhBH7P5a3Kn4-29" value="&lt;font color=&quot;#ff3399&quot;&gt;&lt;b&gt;共享变量访问控制&lt;/b&gt;&lt;/font&gt;" style="rounded=0;whiteSpace=wrap;html=1;fillColor=#66FF66;strokeColor=#36393d;" vertex="1" parent="1">
          <mxGeometry x="215" y="1224" width="45" height="290" as="geometry" />
        </mxCell>
        <mxCell id="MNF7uUWkkhBH7P5a3Kn4-30" value="原FSCK(检查和修复)" style="rounded=0;whiteSpace=wrap;html=1;fillColor=#cce5ff;strokeColor=#36393d;" vertex="1" parent="1">
          <mxGeometry x="291" y="1224" width="236" height="60" as="geometry" />
        </mxCell>
        <mxCell id="MNF7uUWkkhBH7P5a3Kn4-31" style="edgeStyle=orthogonalEdgeStyle;rounded=0;orthogonalLoop=1;jettySize=auto;html=1;exitX=0.5;exitY=1;exitDx=0;exitDy=0;" edge="1" parent="1" source="MNF7uUWkkhBH7P5a3Kn4-33" target="MNF7uUWkkhBH7P5a3Kn4-35">
          <mxGeometry relative="1" as="geometry" />
        </mxCell>
        <mxCell id="MNF7uUWkkhBH7P5a3Kn4-32" style="edgeStyle=orthogonalEdgeStyle;rounded=0;orthogonalLoop=1;jettySize=auto;html=1;exitX=0.5;exitY=1;exitDx=0;exitDy=0;entryX=0.5;entryY=0;entryDx=0;entryDy=0;" edge="1" parent="1" source="MNF7uUWkkhBH7P5a3Kn4-33" target="MNF7uUWkkhBH7P5a3Kn4-35">
          <mxGeometry relative="1" as="geometry" />
        </mxCell>
        <mxCell id="MNF7uUWkkhBH7P5a3Kn4-33" value="&lt;font color=&quot;#ff3399&quot;&gt;&lt;b&gt;任务抓取&lt;/b&gt;&lt;/font&gt;" style="rounded=0;whiteSpace=wrap;html=1;fillColor=#66FF66;strokeColor=#36393d;gradientColor=none;" vertex="1" parent="1">
          <mxGeometry x="290" y="1314" width="120" height="30" as="geometry" />
        </mxCell>
        <mxCell id="MNF7uUWkkhBH7P5a3Kn4-34" style="edgeStyle=orthogonalEdgeStyle;rounded=0;orthogonalLoop=1;jettySize=auto;html=1;exitX=0.5;exitY=1;exitDx=0;exitDy=0;entryX=0.25;entryY=0;entryDx=0;entryDy=0;" edge="1" parent="1" source="MNF7uUWkkhBH7P5a3Kn4-35" target="MNF7uUWkkhBH7P5a3Kn4-23">
          <mxGeometry relative="1" as="geometry" />
        </mxCell>
        <mxCell id="MNF7uUWkkhBH7P5a3Kn4-35" value="&lt;font color=&quot;#ff3399&quot;&gt;&lt;b&gt;一致性保证模块&lt;/b&gt;&lt;/font&gt;" style="rounded=0;whiteSpace=wrap;html=1;fillColor=#cdeb8b;strokeColor=#36393d;" vertex="1" parent="1">
          <mxGeometry x="291" y="1359" width="120" height="20" as="geometry" />
        </mxCell>
        <mxCell id="MNF7uUWkkhBH7P5a3Kn4-36" style="edgeStyle=orthogonalEdgeStyle;rounded=0;orthogonalLoop=1;jettySize=auto;html=1;exitX=0.5;exitY=1;exitDx=0;exitDy=0;entryX=0.75;entryY=0;entryDx=0;entryDy=0;" edge="1" parent="1">
          <mxGeometry relative="1" as="geometry">
            <mxPoint x="481" y="1374" as="sourcePoint" />
            <mxPoint x="475.5" y="1394" as="targetPoint" />
          </mxGeometry>
        </mxCell>
        <mxCell id="MNF7uUWkkhBH7P5a3Kn4-37" value="&lt;b style=&quot;&quot;&gt;&lt;font color=&quot;#9ac7bf&quot;&gt;性能优化&lt;/font&gt;&lt;/b&gt;" style="rounded=0;whiteSpace=wrap;html=1;fillColor=#ffcc99;strokeColor=#36393d;" vertex="1" parent="1">
          <mxGeometry x="421" y="1314" width="106" height="60" as="geometry" />
        </mxCell>
        <mxCell id="MNF7uUWkkhBH7P5a3Kn4-38" value="&lt;b style=&quot;&quot;&gt;&lt;font color=&quot;#ff3399&quot;&gt;缓存&lt;/font&gt;&lt;/b&gt;" style="rounded=0;whiteSpace=wrap;html=1;fillColor=#ffcc99;strokeColor=#36393d;" vertex="1" parent="1">
          <mxGeometry x="290" y="1444" width="60" height="70" as="geometry" />
        </mxCell>
        <mxCell id="MNF7uUWkkhBH7P5a3Kn4-39" value="" style="endArrow=classic;startArrow=classic;html=1;rounded=0;exitX=0.5;exitY=0;exitDx=0;exitDy=0;" edge="1" parent="1" source="MNF7uUWkkhBH7P5a3Kn4-33">
          <mxGeometry width="50" height="50" relative="1" as="geometry">
            <mxPoint x="300" y="1344" as="sourcePoint" />
            <mxPoint x="350" y="1284" as="targetPoint" />
          </mxGeometry>
        </mxCell>
        <mxCell id="MNF7uUWkkhBH7P5a3Kn4-40" value="" style="endArrow=classic;startArrow=classic;html=1;rounded=0;exitX=0.774;exitY=1.017;exitDx=0;exitDy=0;entryX=0.5;entryY=0;entryDx=0;entryDy=0;exitPerimeter=0;" edge="1" parent="1" source="MNF7uUWkkhBH7P5a3Kn4-30" target="MNF7uUWkkhBH7P5a3Kn4-37">
          <mxGeometry width="50" height="50" relative="1" as="geometry">
            <mxPoint x="360" y="1334" as="sourcePoint" />
            <mxPoint x="360" y="1304" as="targetPoint" />
          </mxGeometry>
        </mxCell>
        <mxCell id="MNF7uUWkkhBH7P5a3Kn4-41" value="" style="endArrow=classic;html=1;rounded=0;entryX=1;entryY=0.5;entryDx=0;entryDy=0;exitX=0.05;exitY=0.883;exitDx=0;exitDy=0;exitPerimeter=0;" edge="1" parent="1" source="MNF7uUWkkhBH7P5a3Kn4-27" target="MNF7uUWkkhBH7P5a3Kn4-28">
          <mxGeometry width="50" height="50" relative="1" as="geometry">
            <mxPoint x="550" y="1474" as="sourcePoint" />
            <mxPoint x="600" y="1424" as="targetPoint" />
          </mxGeometry>
        </mxCell>
        <mxCell id="MNF7uUWkkhBH7P5a3Kn4-42" value="" style="endArrow=classic;startArrow=classic;html=1;rounded=0;" edge="1" parent="1" source="MNF7uUWkkhBH7P5a3Kn4-27">
          <mxGeometry width="50" height="50" relative="1" as="geometry">
            <mxPoint x="484" y="1295" as="sourcePoint" />
            <mxPoint x="570" y="1544" as="targetPoint" />
          </mxGeometry>
        </mxCell>
        <mxCell id="MNF7uUWkkhBH7P5a3Kn4-43" value="" style="endArrow=classic;startArrow=classic;html=1;rounded=0;" edge="1" parent="1">
          <mxGeometry width="50" height="50" relative="1" as="geometry">
            <mxPoint x="323.66" y="1514" as="sourcePoint" />
            <mxPoint x="324" y="1544" as="targetPoint" />
          </mxGeometry>
        </mxCell>
        <mxCell id="MNF7uUWkkhBH7P5a3Kn4-44" value="设备驱动" style="rounded=0;whiteSpace=wrap;html=1;fillColor=#f9f7ed;strokeColor=#36393d;" vertex="1" parent="1">
          <mxGeometry x="394.5" y="1634" width="91" height="30" as="geometry" />
        </mxCell>
        <mxCell id="MNF7uUWkkhBH7P5a3Kn4-45" value="" style="endArrow=classic;startArrow=classic;html=1;rounded=0;exitX=1;exitY=0.5;exitDx=0;exitDy=0;" edge="1" parent="1" source="MNF7uUWkkhBH7P5a3Kn4-29" target="MNF7uUWkkhBH7P5a3Kn4-35">
          <mxGeometry width="50" height="50" relative="1" as="geometry">
            <mxPoint x="260" y="1374" as="sourcePoint" />
            <mxPoint x="310" y="1324" as="targetPoint" />
          </mxGeometry>
        </mxCell>
        <mxCell id="MNF7uUWkkhBH7P5a3Kn4-46" value="" style="endArrow=none;html=1;rounded=0;exitX=0;exitY=0;exitDx=0;exitDy=0;strokeWidth=3;entryX=1;entryY=0;entryDx=0;entryDy=0;fillColor=#dae8fc;strokeColor=#6c8ebf;" edge="1" parent="1">
          <mxGeometry width="50" height="50" relative="1" as="geometry">
            <mxPoint x="100" y="1674.17" as="sourcePoint" />
            <mxPoint x="610" y="1674.17" as="targetPoint" />
          </mxGeometry>
        </mxCell>
        <mxCell id="MNF7uUWkkhBH7P5a3Kn4-47" value="NAND设备" style="text;html=1;strokeColor=none;fillColor=none;align=center;verticalAlign=middle;whiteSpace=wrap;rounded=0;fontSize=14;labelBorderColor=none;" vertex="1" parent="1">
          <mxGeometry x="640" y="1699.5" width="70" height="30" as="geometry" />
        </mxCell>
        <mxCell id="MNF7uUWkkhBH7P5a3Kn4-48" value="系统原有" style="rounded=0;whiteSpace=wrap;html=1;fillColor=#cce5ff;labelBorderColor=none;strokeColor=none;" vertex="1" parent="1">
          <mxGeometry x="32.5" y="1204" width="60" height="30" as="geometry" />
        </mxCell>
        <mxCell id="MNF7uUWkkhBH7P5a3Kn4-49" value="已完成" style="rounded=0;whiteSpace=wrap;html=1;fillColor=#66ff66;labelBorderColor=none;strokeColor=none;" vertex="1" parent="1">
          <mxGeometry x="32.5" y="1239" width="60" height="30" as="geometry" />
        </mxCell>
        <mxCell id="MNF7uUWkkhBH7P5a3Kn4-50" value="待完善" style="rounded=0;whiteSpace=wrap;html=1;fillColor=#cdeb8b;labelBorderColor=none;strokeColor=none;" vertex="1" parent="1">
          <mxGeometry x="32.5" y="1284" width="60" height="30" as="geometry" />
        </mxCell>
        <mxCell id="MNF7uUWkkhBH7P5a3Kn4-51" value="待实现" style="rounded=0;whiteSpace=wrap;html=1;fillColor=#ffcc99;labelBorderColor=none;strokeColor=none;" vertex="1" parent="1">
          <mxGeometry x="32.5" y="1324" width="60" height="30" as="geometry" />
        </mxCell>
        <mxCell id="MNF7uUWkkhBH7P5a3Kn4-52" value="&lt;font color=&quot;#ff3399&quot;&gt;&lt;b&gt;目标1&lt;/b&gt;&lt;/font&gt;" style="text;html=1;strokeColor=none;fillColor=none;align=center;verticalAlign=middle;whiteSpace=wrap;rounded=0;" vertex="1" parent="1">
          <mxGeometry x="33" y="1364" width="60" height="30" as="geometry" />
        </mxCell>
        <mxCell id="MNF7uUWkkhBH7P5a3Kn4-53" value="&lt;b style=&quot;&quot;&gt;&lt;font color=&quot;#b266ff&quot;&gt;目标2&lt;/font&gt;&lt;/b&gt;" style="text;html=1;strokeColor=none;fillColor=none;align=center;verticalAlign=middle;whiteSpace=wrap;rounded=0;" vertex="1" parent="1">
          <mxGeometry x="33" y="1389" width="60" height="30" as="geometry" />
        </mxCell>
        <mxCell id="MNF7uUWkkhBH7P5a3Kn4-54" value="&lt;b style=&quot;&quot;&gt;&lt;font color=&quot;#9ac7bf&quot;&gt;目标3&lt;/font&gt;&lt;/b&gt;" style="text;html=1;strokeColor=none;fillColor=none;align=center;verticalAlign=middle;whiteSpace=wrap;rounded=0;" vertex="1" parent="1">
          <mxGeometry x="32.5" y="1413" width="60" height="30" as="geometry" />
        </mxCell>
      </root>
    </mxGraphModel>
  </diagram>
</mxfile>
